<svg width="873" height="144" viewBox="0 0 873 144" fill="none" xmlns="http://www.w3.org/2000/svg">
<path d="M0.456321 52V0.727271H20.9854C24.7575 0.727271 27.9036 1.2864 30.4238 2.40465C32.9441 3.5229 34.8384 5.07511 36.1069 7.06126C37.3754 9.03072 38.0096 11.3006 38.0096 13.8709C38.0096 15.8738 37.609 17.6346 36.8079 19.1534C36.0067 20.6555 34.9052 21.8906 33.5032 22.8587C32.1179 23.81 30.5323 24.486 28.7465 24.8865V25.3873C30.6992 25.4707 32.5268 26.0215 34.2292 27.0396C35.9483 28.0577 37.342 29.4847 38.4102 31.3207C39.4783 33.1399 40.0124 35.3097 40.0124 37.8299C40.0124 40.5504 39.3365 42.9789 37.9846 45.1152C36.6493 47.2349 34.6715 48.9123 32.0511 50.1474C29.4308 51.3825 26.2012 52 22.3624 52H0.456321ZM11.2967 43.1374H20.1342C23.1552 43.1374 25.3583 42.5616 26.7436 41.41C28.1289 40.2417 28.8216 38.6895 28.8216 36.7534C28.8216 35.3347 28.4794 34.0829 27.7951 32.998C27.1108 31.9132 26.1344 31.062 24.8659 30.4444C23.6142 29.8269 22.1204 29.5181 20.3846 29.5181H11.2967V43.1374ZM11.2967 22.1827H19.3331C20.8185 22.1827 22.1371 21.924 23.2887 21.4066C24.457 20.8725 25.375 20.1214 26.0426 19.1534C26.7269 18.1854 27.0691 17.0254 27.0691 15.6735C27.0691 13.8208 26.4098 12.3271 25.0913 11.1921C23.7894 10.0572 21.9368 9.4897 19.5334 9.4897H11.2967V22.1827ZM40.5369 0.727271H52.6791L64.3707 22.8086H64.8714L76.563 0.727271H88.7052L70.0037 33.8743V52H59.2384V33.8743L40.5369 0.727271ZM103.893 52V0.727271H124.122C128.011 0.727271 131.324 1.46999 134.061 2.95543C136.798 4.42418 138.884 6.46875 140.32 9.08913C141.772 11.6928 142.498 14.6971 142.498 18.1019C142.498 21.5067 141.763 24.511 140.295 27.1147C138.826 29.7184 136.698 31.7463 133.911 33.1983C131.14 34.6504 127.785 35.3764 123.846 35.3764H110.953V26.6891H122.094C124.18 26.6891 125.899 26.3303 127.251 25.6126C128.62 24.8782 129.638 23.8684 130.306 22.5833C130.99 21.2814 131.332 19.7876 131.332 18.1019C131.332 16.3995 130.99 14.9141 130.306 13.6456C129.638 12.3604 128.62 11.3674 127.251 10.6664C125.883 9.94869 124.147 9.58984 122.044 9.58984H114.733V52H103.893ZM146.014 52V0.727271H166.243C170.115 0.727271 173.42 1.41992 176.157 2.80522C178.911 4.17383 181.005 6.11825 182.441 8.63849C183.893 11.142 184.619 14.0879 184.619 17.476C184.619 20.8809 183.884 23.81 182.416 26.2635C180.947 28.7003 178.819 30.5696 176.032 31.8714C173.261 33.1733 169.906 33.8242 165.967 33.8242H152.423V25.1119H164.215C166.284 25.1119 168.004 24.8281 169.372 24.2607C170.741 23.6932 171.759 22.842 172.426 21.707C173.111 20.5721 173.453 19.1618 173.453 17.476C173.453 15.7736 173.111 14.3382 172.426 13.1699C171.759 12.0016 170.732 11.117 169.347 10.5162C167.979 9.89861 166.251 9.58984 164.165 9.58984H156.854V52H146.014ZM173.703 28.6669L186.446 52H174.479L162.012 28.6669H173.703ZM197.592 52H185.976L203.676 0.727271H217.646L235.321 52H223.704L210.861 12.4439H210.46L197.592 52ZM196.866 31.8464H224.305V40.3084H196.866V31.8464ZM258.496 0.727271H269.211V36.478C269.211 39.7827 268.469 42.6534 266.983 45.0902C265.514 47.527 263.47 49.4047 260.849 50.7232C258.229 52.0417 255.183 52.701 251.711 52.701C248.624 52.701 245.82 52.1586 243.3 51.0737C240.796 49.9721 238.81 48.3031 237.341 46.0666C235.872 43.8134 235.146 40.9844 235.163 37.5795H245.953C245.987 38.9315 246.262 40.0914 246.779 41.0595C247.314 42.0108 248.04 42.7452 248.958 43.2626C249.892 43.7633 250.994 44.0137 252.262 44.0137C253.597 44.0137 254.724 43.7299 255.642 43.1625C256.577 42.5783 257.286 41.7271 257.77 40.6088C258.254 39.4906 258.496 38.1136 258.496 36.478V0.727271ZM286.19 52L271.52 0.727271H283.361L291.848 36.3528H292.274L301.637 0.727271H311.777L321.115 36.4279H321.566L330.053 0.727271H341.894L327.224 52H316.659L306.895 18.4774H306.494L296.755 52H286.19ZM347.845 52H336.229L353.929 0.727271H367.899L385.574 52H373.957L361.114 12.4439H360.714L347.845 52ZM347.119 31.8464H374.558V40.3084H347.119V31.8464ZM388.22 52V0.727271H399.06V43.0623H421.042V52H388.22ZM443.521 52.6509C441.869 52.6509 440.45 52.0668 439.265 50.8984C438.097 49.7134 437.513 48.2947 437.513 46.6424C437.513 45.0067 438.097 43.6048 439.265 42.4364C440.45 41.2681 441.869 40.6839 443.521 40.6839C445.123 40.6839 446.525 41.2681 447.727 42.4364C448.929 43.6048 449.53 45.0067 449.53 46.6424C449.53 47.744 449.246 48.7537 448.678 49.6717C448.128 50.573 447.402 51.299 446.5 51.8498C445.599 52.3839 444.606 52.6509 443.521 52.6509ZM3.21023 111.364C3.21023 105.088 4.0364 99.3132 5.68874 94.0391C7.34109 88.7649 9.75284 83.8997 12.924 79.4434H19.7837C18.5487 81.0957 17.397 83.1236 16.3288 85.527C15.2607 87.9304 14.326 90.5675 13.5249 93.4382C12.7237 96.2923 12.0978 99.2548 11.6472 102.326C11.1966 105.38 10.9712 108.393 10.9712 111.364C10.9712 115.336 11.3635 119.358 12.1479 123.431C12.9324 127.503 13.9922 131.284 15.3274 134.772C16.6626 138.26 18.1481 141.106 19.7837 143.309H12.924C9.75284 138.853 7.34109 133.987 5.68874 128.713C4.0364 123.439 3.21023 117.656 3.21023 111.364ZM32.488 85.7273V137H24.752V85.7273H32.488ZM81.6127 85.7273V137H74.5026L48.4406 99.3967H47.965V137H40.229V85.7273H47.3891L73.4761 123.381H73.9518V85.7273H81.6127ZM130.756 85.7273V137H123.646L97.5841 99.3967H97.1084V137H89.3724V85.7273H96.5326L122.62 123.381H123.095V85.7273H130.756ZM183.054 111.364C183.054 116.838 182.053 121.545 180.05 125.484C178.047 129.406 175.301 132.427 171.813 134.547C168.342 136.65 164.394 137.701 159.971 137.701C155.532 137.701 151.568 136.65 148.079 134.547C144.608 132.427 141.871 129.398 139.868 125.459C137.865 121.52 136.864 116.821 136.864 111.364C136.864 105.889 137.865 101.191 139.868 97.2686C141.871 93.3297 144.608 90.3088 148.079 88.2058C151.568 86.0861 155.532 85.0263 159.971 85.0263C164.394 85.0263 168.342 86.0861 171.813 88.2058C175.301 90.3088 178.047 93.3297 180.05 97.2686C182.053 101.191 183.054 105.889 183.054 111.364ZM175.393 111.364C175.393 107.191 174.717 103.678 173.365 100.824C172.03 97.9529 170.194 95.7832 167.858 94.3145C165.538 92.829 162.909 92.0863 159.971 92.0863C157.017 92.0863 154.38 92.829 152.06 94.3145C149.74 95.7832 147.904 97.9529 146.552 100.824C145.217 103.678 144.549 107.191 144.549 111.364C144.549 115.536 145.217 119.058 146.552 121.929C147.904 124.783 149.74 126.952 152.06 128.438C154.38 129.907 157.017 130.641 159.971 130.641C162.909 130.641 165.538 129.907 167.858 128.438C170.194 126.952 172.03 124.783 173.365 121.929C174.717 119.058 175.393 115.536 175.393 111.364ZM191.108 85.7273L205.378 127.487H205.954L220.224 85.7273H228.586L210.135 137H201.197L182.746 85.7273H191.108ZM231.564 137H223.352L241.804 85.7273H250.741L269.193 137H260.981L246.485 95.0405H246.085L231.564 137ZM232.941 116.922H259.579V123.431H232.941V116.922ZM264.485 92.3867V85.7273H304.166V92.3867H288.168V137H280.457V92.3867H264.485ZM317.146 85.7273V137H309.41V85.7273H317.146ZM329.368 85.7273L343.638 127.487H344.214L358.484 85.7273H366.846L348.395 137H339.457L321.006 85.7273H329.368ZM370.725 137V85.7273H402.871V92.3867H378.461V108.009H401.193V114.643H378.461V130.341H403.171V137H370.725ZM467.397 102.401H459.586C459.286 100.732 458.727 99.2631 457.909 97.9947C457.091 96.7262 456.09 95.6497 454.905 94.7651C453.72 93.8805 452.393 93.2129 450.924 92.7623C449.472 92.3116 447.928 92.0863 446.292 92.0863C443.338 92.0863 440.693 92.829 438.356 94.3145C436.036 95.7999 434.2 97.978 432.848 100.849C431.513 103.719 430.846 107.224 430.846 111.364C430.846 115.536 431.513 119.058 432.848 121.929C434.2 124.799 436.045 126.969 438.381 128.438C440.718 129.907 443.347 130.641 446.267 130.641C447.886 130.641 449.422 130.424 450.874 129.99C452.343 129.539 453.67 128.88 454.855 128.012C456.04 127.144 457.041 126.085 457.859 124.833C458.693 123.564 459.269 122.112 459.586 120.477L467.397 120.502C466.98 123.022 466.171 125.342 464.969 127.461C463.784 129.564 462.257 131.384 460.387 132.919C458.535 134.438 456.415 135.615 454.028 136.449C451.642 137.284 449.038 137.701 446.217 137.701C441.778 137.701 437.822 136.65 434.351 134.547C430.879 132.427 428.142 129.398 426.139 125.459C424.153 121.52 423.16 116.821 423.16 111.364C423.16 105.889 424.161 101.191 426.164 97.2686C428.167 93.3297 430.904 90.3088 434.376 88.2058C437.847 86.0861 441.794 85.0263 446.217 85.0263C448.938 85.0263 451.475 85.4185 453.828 86.2029C456.198 86.9707 458.326 88.1056 460.212 89.6078C462.098 91.0932 463.659 92.9125 464.894 95.0655C466.129 97.2019 466.963 99.647 467.397 102.401ZM473.129 137V85.7273H480.865V108.009H506.427V85.7273H514.188V137H506.427V114.643H480.865V137H473.129ZM526.26 137H518.048L536.499 85.7273H545.437L563.888 137H555.676L541.181 95.0405H540.78L526.26 137ZM527.637 116.922H554.274V123.431H527.637V116.922ZM567.767 137V85.7273H575.503V130.341H598.736V137H567.767ZM604.036 137V85.7273H611.772V130.341H635.005V137H604.036ZM640.305 137V85.7273H672.451V92.3867H648.041V108.009H670.773V114.643H648.041V130.341H672.751V137H640.305ZM720.643 85.7273V137H713.533L687.471 99.3967H686.995V137H679.259V85.7273H686.419L712.506 123.381H712.982V85.7273H720.643ZM763.102 101.925C762.618 100.406 761.967 99.0462 761.149 97.8445C760.348 96.6261 759.388 95.5913 758.27 94.7401C757.152 93.8722 755.875 93.2129 754.44 92.7623C753.021 92.3116 751.46 92.0863 749.758 92.0863C746.871 92.0863 744.267 92.829 741.947 94.3145C739.627 95.7999 737.791 97.978 736.439 100.849C735.104 103.703 734.436 107.199 734.436 111.339C734.436 115.494 735.112 119.008 736.464 121.879C737.816 124.749 739.669 126.927 742.022 128.413C744.375 129.898 747.054 130.641 750.058 130.641C752.846 130.641 755.274 130.074 757.344 128.939C759.43 127.804 761.041 126.201 762.176 124.132C763.327 122.045 763.903 119.592 763.903 116.771L765.906 117.147H751.235V110.763H771.389V116.596C771.389 120.902 770.471 124.641 768.635 127.812C766.815 130.966 764.295 133.403 761.074 135.122C757.869 136.841 754.198 137.701 750.058 137.701C745.418 137.701 741.346 136.633 737.841 134.496C734.353 132.36 731.632 129.331 729.679 125.409C727.727 121.47 726.75 116.796 726.75 111.389C726.75 107.3 727.318 103.628 728.453 100.373C729.588 97.1184 731.182 94.3562 733.234 92.0863C735.304 89.7997 737.733 88.0556 740.52 86.8539C743.324 85.6355 746.386 85.0263 749.708 85.0263C752.478 85.0263 755.057 85.4352 757.444 86.253C759.847 87.0708 761.984 88.2308 763.853 89.733C765.739 91.2351 767.299 93.021 768.535 95.0906C769.77 97.1435 770.604 99.4217 771.038 101.925H763.102ZM777.684 137V85.7273H809.829V92.3867H785.42V108.009H808.152V114.643H785.42V130.341H810.13V137H777.684ZM816.638 137V85.7273H834.914C838.886 85.7273 842.182 86.4116 844.803 87.7802C847.44 89.1488 849.409 91.0431 850.711 93.4632C852.013 95.8667 852.664 98.6456 852.664 101.8C852.664 104.938 852.005 107.7 850.686 110.087C849.384 112.457 847.415 114.301 844.778 115.62C842.157 116.938 838.861 117.597 834.889 117.597H821.044V110.938H834.188C836.691 110.938 838.727 110.579 840.296 109.862C841.882 109.144 843.042 108.101 843.776 106.732C844.511 105.363 844.878 103.719 844.878 101.8C844.878 99.864 844.502 98.1866 843.751 96.7679C843.017 95.3493 841.857 94.2644 840.271 93.5133C838.702 92.7456 836.641 92.3617 834.088 92.3617H824.374V137H816.638ZM841.949 113.867L854.617 137H845.804L833.387 113.867H841.949ZM872.347 111.364C872.347 117.656 871.521 123.439 869.868 128.713C868.216 133.987 865.804 138.853 862.633 143.309H855.773C857.008 141.657 858.16 139.629 859.228 137.225C860.296 134.822 861.231 132.193 862.032 129.339C862.833 126.468 863.459 123.498 863.91 120.426C864.36 117.355 864.586 114.335 864.586 111.364C864.586 107.408 864.194 103.394 863.409 99.3216C862.625 95.2491 861.565 91.4688 860.23 87.9805C858.894 84.4922 857.409 81.6465 855.773 79.4434H862.633C865.804 83.8997 868.216 88.7649 869.868 94.0391C871.521 99.3132 872.347 105.088 872.347 111.364Z" fill="black"/>
</svg>
