<svg width="1595" height="197" viewBox="0 0 1595 197" fill="none" xmlns="http://www.w3.org/2000/svg">
<path d="M297.754 62.7298V131.457H286.68L254.296 84.6433H253.726V131.457H241.276V62.7298H252.417L284.767 109.577H285.371V62.7298H297.754ZM328.878 132.464C323.71 132.464 319.247 131.39 315.488 129.242C311.752 127.072 308.877 124.007 306.864 120.047C304.85 116.065 303.843 111.378 303.843 105.986C303.843 100.684 304.85 96.0308 306.864 92.0262C308.9 87.9992 311.741 84.8671 315.388 82.6299C319.034 80.3703 323.318 79.2405 328.24 79.2405C331.417 79.2405 334.415 79.755 337.234 80.7841C340.075 81.7909 342.581 83.3569 344.751 85.4823C346.943 87.6077 348.666 90.3147 349.919 93.6034C351.172 96.8697 351.798 100.762 351.798 105.282V109.007H309.548V100.818H340.154C340.131 98.4917 339.628 96.4223 338.643 94.6101C337.659 92.7756 336.283 91.3326 334.516 90.2811C332.771 89.2296 330.735 88.7039 328.408 88.7039C325.925 88.7039 323.744 89.3079 321.864 90.516C319.985 91.7018 318.52 93.2678 317.468 95.2142C316.439 97.1382 315.913 99.2524 315.891 101.557V108.705C315.891 111.702 316.439 114.275 317.535 116.423C318.631 118.548 320.164 120.182 322.133 121.323C324.101 122.441 326.406 123 329.046 123C330.813 123 332.413 122.754 333.845 122.262C335.276 121.748 336.518 120.998 337.57 120.014C338.621 119.029 339.415 117.81 339.952 116.356L351.295 117.631C350.579 120.629 349.214 123.247 347.201 125.484C345.21 127.699 342.659 129.421 339.549 130.652C336.44 131.86 332.883 132.464 328.878 132.464ZM357.35 150.787V79.9116H369.297V88.4354H370.002C370.628 87.1826 371.512 85.8514 372.653 84.442C373.794 83.0102 375.338 81.7909 377.284 80.7841C379.23 79.755 381.714 79.2405 384.734 79.2405C388.716 79.2405 392.307 80.2584 395.506 82.2943C398.728 84.3078 401.278 87.2944 403.157 91.2543C405.059 95.1918 406.01 100.024 406.01 105.751C406.01 111.412 405.081 116.222 403.225 120.182C401.368 124.141 398.84 127.162 395.64 129.242C392.441 131.323 388.817 132.363 384.768 132.363C381.814 132.363 379.365 131.871 377.418 130.887C375.472 129.902 373.906 128.717 372.72 127.329C371.557 125.92 370.651 124.589 370.002 123.336H369.499V150.787H357.35ZM369.264 105.684C369.264 109.018 369.733 111.937 370.673 114.443C371.635 116.949 373.011 118.906 374.801 120.316C376.613 121.703 378.805 122.396 381.378 122.396C384.063 122.396 386.311 121.68 388.123 120.249C389.935 118.794 391.3 116.815 392.217 114.309C393.157 111.781 393.627 108.906 393.627 105.684C393.627 102.485 393.168 99.6439 392.251 97.1606C391.334 94.6773 389.969 92.7309 388.157 91.3214C386.345 89.912 384.085 89.2073 381.378 89.2073C378.783 89.2073 376.579 89.8896 374.767 91.2543C372.955 92.619 371.579 94.5318 370.639 96.9928C369.722 99.4537 369.264 102.351 369.264 105.684ZM437.427 79.9116V89.3079H407.795V79.9116H437.427ZM415.111 67.5622H427.259V115.953C427.259 117.586 427.505 118.839 427.997 119.712C428.512 120.562 429.183 121.144 430.011 121.457C430.838 121.77 431.756 121.927 432.762 121.927C433.523 121.927 434.217 121.871 434.843 121.759C435.492 121.647 435.984 121.546 436.32 121.457L438.367 130.954C437.718 131.177 436.789 131.424 435.581 131.692C434.396 131.96 432.941 132.117 431.219 132.162C428.176 132.251 425.436 131.793 422.997 130.786C420.558 129.757 418.623 128.168 417.191 126.021C415.782 123.873 415.088 121.188 415.111 117.967V67.5622ZM475.715 109.778V79.9116H487.863V131.457H476.085V122.296H475.548C474.384 125.182 472.471 127.542 469.809 129.376C467.169 131.211 463.914 132.128 460.044 132.128C456.665 132.128 453.679 131.379 451.084 129.88C448.511 128.359 446.497 126.155 445.043 123.269C443.589 120.361 442.862 116.848 442.862 112.732V79.9116H455.01V110.852C455.01 114.119 455.905 116.714 457.695 118.638C459.484 120.562 461.833 121.524 464.742 121.524C466.532 121.524 468.265 121.088 469.943 120.215C471.621 119.343 472.997 118.045 474.071 116.322C475.167 114.577 475.715 112.396 475.715 109.778ZM507.779 101.255V131.457H495.631V79.9116H507.242V88.6703H507.846C509.031 85.7843 510.922 83.4912 513.517 81.7909C516.135 80.0906 519.367 79.2405 523.215 79.2405C526.773 79.2405 529.871 80.0011 532.511 81.5224C535.173 83.0437 537.232 85.2474 538.686 88.1334C540.162 91.0194 540.889 94.5207 540.867 98.6371V131.457H528.719V100.516C528.719 97.0711 527.824 94.3752 526.034 92.4289C524.267 90.4825 521.817 89.5093 518.685 89.5093C516.56 89.5093 514.669 89.9791 513.014 90.9187C511.381 91.836 510.094 93.1671 509.154 94.9122C508.237 96.6572 507.779 98.7714 507.779 101.255ZM571.311 132.464C566.143 132.464 561.68 131.39 557.921 129.242C554.185 127.072 551.31 124.007 549.297 120.047C547.283 116.065 546.277 111.378 546.277 105.986C546.277 100.684 547.283 96.0308 549.297 92.0262C551.333 87.9992 554.174 84.8671 557.821 82.6299C561.467 80.3703 565.752 79.2405 570.673 79.2405C573.85 79.2405 576.848 79.755 579.667 80.7841C582.508 81.7909 585.014 83.3569 587.184 85.4823C589.377 87.6077 591.099 90.3147 592.352 93.6034C593.605 96.8697 594.231 100.762 594.231 105.282V109.007H551.981V100.818H582.587C582.564 98.4917 582.061 96.4223 581.076 94.6101C580.092 92.7756 578.716 91.3326 576.949 90.2811C575.204 89.2296 573.168 88.7039 570.841 88.7039C568.358 88.7039 566.177 89.3079 564.297 90.516C562.418 91.7018 560.953 93.2678 559.901 95.2142C558.872 97.1382 558.346 99.2524 558.324 101.557V108.705C558.324 111.702 558.872 114.275 559.968 116.423C561.065 118.548 562.597 120.182 564.566 121.323C566.535 122.441 568.839 123 571.479 123C573.246 123 574.846 122.754 576.278 122.262C577.709 121.748 578.951 120.998 580.003 120.014C581.054 119.029 581.848 117.81 582.385 116.356L593.728 117.631C593.012 120.629 591.647 123.247 589.634 125.484C587.643 127.699 585.092 129.421 581.983 130.652C578.873 131.86 575.316 132.464 571.311 132.464Z" fill="#5225A0"/>
<mask id="mask0_59_3" style="mask-type:alpha" maskUnits="userSpaceOnUse" x="26" y="26" width="144" height="144">
<ellipse cx="97.8087" cy="97.6401" rx="71.3089" ry="71.7696" transform="rotate(60 97.8087 97.6401)" fill="#D9D9D9"/>
</mask>
<g mask="url(#mask0_59_3)">
<ellipse cx="97.5985" cy="98.1551" rx="71.82" ry="71.7696" transform="rotate(-15 97.5985 98.1551)" fill="#5225A0"/>
</g>
<mask id="mask1_59_3" style="mask-type:alpha" maskUnits="userSpaceOnUse" x="20" y="20" width="156" height="156">
<circle cx="98.0391" cy="98.0391" r="71.7696" transform="rotate(60 98.0391 98.0391)" fill="#D9D9D9" stroke="black" stroke-width="11.592"/>
</mask>
<g mask="url(#mask1_59_3)">
<ellipse cx="161.282" cy="97.4009" rx="65.7775" ry="26.2362" transform="rotate(88.8423 161.282 97.4009)" fill="#5225A0" stroke="white" stroke-width="11.592"/>
<ellipse cx="156.378" cy="96.9413" rx="71.7696" ry="49.3704" transform="rotate(88.8423 156.378 96.9413)" stroke="white" stroke-width="11.592"/>
<ellipse cx="144.782" cy="96.2944" rx="73.9854" ry="68.0225" transform="rotate(88.8423 144.782 96.2944)" stroke="white" stroke-width="11.592"/>
<ellipse cx="127.025" cy="96.4384" rx="76.3057" ry="81.1661" transform="rotate(88.8423 127.025 96.4384)" stroke="white" stroke-width="11.592"/>
</g>
<path d="M882.409 84V42.4691H899.038C902.093 42.4691 904.642 42.922 906.683 43.8278C908.724 44.7336 910.259 45.9908 911.286 47.5996C912.314 49.1949 912.828 51.0335 912.828 53.1154C912.828 54.7377 912.503 56.164 911.854 57.3943C911.205 58.611 910.313 59.6114 909.177 60.3955C908.055 61.1661 906.771 61.7136 905.324 62.0381V62.4437C906.906 62.5113 908.387 62.9574 909.765 63.7821C911.158 64.6067 912.287 65.7626 913.152 67.2497C914.017 68.7233 914.45 70.4808 914.45 72.5222C914.45 74.7258 913.902 76.6929 912.807 78.4233C911.726 80.1403 910.124 81.499 908.001 82.4994C905.879 83.4998 903.263 84 900.153 84H882.409ZM891.19 76.8213H898.349C900.796 76.8213 902.58 76.3549 903.702 75.4221C904.824 74.4757 905.385 73.2185 905.385 71.6502C905.385 70.5011 905.108 69.4872 904.554 68.6084C904 67.7297 903.209 67.0402 902.181 66.54C901.167 66.0398 899.957 65.7897 898.551 65.7897H891.19V76.8213ZM891.19 59.848H897.7C898.903 59.848 899.971 59.6384 900.904 59.2194C901.85 58.7867 902.594 58.1784 903.134 57.3943C903.689 56.6102 903.966 55.6706 903.966 54.5755C903.966 53.0749 903.432 51.8649 902.364 50.9456C901.309 50.0263 899.809 49.5667 897.862 49.5667H891.19V59.848ZM914.875 42.4691H924.71L934.18 60.355H934.586L944.056 42.4691H953.891L938.743 69.3182V84H930.023V69.3182L914.875 42.4691ZM966.193 84V42.4691H982.578C985.728 42.4691 988.412 43.0707 990.629 44.2739C992.846 45.4636 994.536 47.1197 995.699 49.2422C996.875 51.3512 997.463 53.7846 997.463 56.5426C997.463 59.3005 996.868 61.7339 995.678 63.8429C994.489 65.9519 992.765 67.5945 990.507 68.7706C988.263 69.9468 985.546 70.5349 982.355 70.5349H971.912V63.4982H980.936C982.626 63.4982 984.018 63.2075 985.113 62.6262C986.222 62.0313 987.046 61.2134 987.587 60.1725C988.142 59.118 988.419 57.908 988.419 56.5426C988.419 55.1636 988.142 53.9604 987.587 52.9329C987.046 51.892 986.222 51.0876 985.113 50.5198C984.005 49.9384 982.599 49.6478 980.895 49.6478H974.974V84H966.193ZM1000.31 84V42.4691H1016.7C1019.83 42.4691 1022.51 43.0301 1024.73 44.1522C1026.96 45.2608 1028.65 46.8358 1029.82 48.8772C1030.99 50.9051 1031.58 53.2912 1031.58 56.0356C1031.58 58.7935 1030.99 61.1661 1029.8 63.1534C1028.61 65.1272 1026.88 66.6414 1024.63 67.6959C1022.38 68.7504 1019.66 69.2776 1016.47 69.2776H1005.5V62.2206H1015.05C1016.73 62.2206 1018.12 61.9908 1019.23 61.5311C1020.34 61.0715 1021.16 60.382 1021.71 59.4627C1022.26 58.5434 1022.54 57.401 1022.54 56.0356C1022.54 54.6566 1022.26 53.494 1021.71 52.5476C1021.16 51.6013 1020.33 50.8848 1019.21 50.3981C1018.1 49.8979 1016.7 49.6478 1015.01 49.6478H1009.09V84H1000.31ZM1022.74 65.1002L1033.06 84H1023.37L1013.27 65.1002H1022.74ZM1042.09 84H1032.68L1047.02 42.4691H1058.33L1072.65 84H1063.24L1052.84 51.9596H1052.51L1042.09 84ZM1041.5 67.6756H1063.73V74.5298H1041.5V67.6756ZM1091.42 42.4691H1100.1V71.4272C1100.1 74.104 1099.5 76.4293 1098.3 78.4031C1097.11 80.3769 1095.45 81.8978 1093.33 82.9658C1091.21 84.0338 1088.74 84.5678 1085.93 84.5678C1083.43 84.5678 1081.15 84.1284 1079.11 83.2497C1077.08 82.3574 1075.48 81.0055 1074.29 79.1939C1073.1 77.3688 1072.51 75.0773 1072.52 72.3194H1081.26C1081.29 73.4145 1081.51 74.3541 1081.93 75.1382C1082.36 75.9088 1082.95 76.5036 1083.7 76.9227C1084.45 77.3283 1085.34 77.5311 1086.37 77.5311C1087.45 77.5311 1088.37 77.3012 1089.11 76.8416C1089.87 76.3684 1090.44 75.6789 1090.83 74.7732C1091.23 73.8674 1091.42 72.752 1091.42 71.4272V42.4691ZM1113.85 84L1101.97 42.4691H1111.56L1118.44 71.3258H1118.78L1126.37 42.4691H1134.58L1142.14 71.3866H1142.51L1149.38 42.4691H1158.97L1147.09 84H1138.53L1130.62 56.8467H1130.3L1122.41 84H1113.85ZM1163.79 84H1154.39L1168.72 42.4691H1180.04L1194.35 84H1184.95L1174.54 51.9596H1174.22L1163.79 84ZM1163.21 67.6756H1185.43V74.5298H1163.21V67.6756ZM1196.5 84V42.4691H1205.28V76.7605H1223.08V84H1196.5ZM1241.29 84.5272C1239.95 84.5272 1238.8 84.0541 1237.84 83.1077C1236.9 82.1479 1236.42 80.9987 1236.42 79.6603C1236.42 78.3355 1236.9 77.1999 1237.84 76.2535C1238.8 75.3072 1239.95 74.834 1241.29 74.834C1242.59 74.834 1243.73 75.3072 1244.7 76.2535C1245.67 77.1999 1246.16 78.3355 1246.16 79.6603C1246.16 80.5526 1245.93 81.3705 1245.47 82.1141C1245.02 82.8441 1244.44 83.4322 1243.7 83.8783C1242.97 84.3109 1242.17 84.5272 1241.29 84.5272ZM884.64 132.235C884.64 127.151 885.309 122.474 886.648 118.202C887.986 113.93 889.94 109.989 892.508 106.379H898.065C897.064 107.718 896.131 109.36 895.266 111.307C894.401 113.254 893.644 115.39 892.995 117.715C892.346 120.027 891.839 122.426 891.474 124.914C891.109 127.388 890.927 129.828 890.927 132.235C890.927 135.452 891.244 138.71 891.88 142.009C892.515 145.308 893.373 148.37 894.455 151.195C895.537 154.021 896.74 156.326 898.065 158.11H892.508C889.94 154.501 887.986 150.56 886.648 146.288C885.309 142.016 884.64 137.331 884.64 132.235ZM908.355 111.469V153H902.089V111.469H908.355ZM948.146 111.469V153H942.387L921.277 122.541H920.891V153H914.625V111.469H920.425L941.555 141.968H941.941V111.469H948.146ZM987.952 111.469V153H982.193L961.083 122.541H960.698V153H954.431V111.469H960.231L981.362 141.968H981.747V111.469H987.952ZM1030.31 132.235C1030.31 136.669 1029.5 140.481 1027.88 143.672C1026.26 146.849 1024.03 149.296 1021.21 151.013C1018.4 152.716 1015.2 153.568 1011.62 153.568C1008.02 153.568 1004.81 152.716 1001.98 151.013C999.172 149.296 996.955 146.842 995.333 143.651C993.71 140.461 992.899 136.655 992.899 132.235C992.899 127.8 993.71 123.995 995.333 120.818C996.955 117.627 999.172 115.18 1001.98 113.477C1004.81 111.76 1008.02 110.901 1011.62 110.901C1015.2 110.901 1018.4 111.76 1021.21 113.477C1024.03 115.18 1026.26 117.627 1027.88 120.818C1029.5 123.995 1030.31 127.8 1030.31 132.235ZM1024.11 132.235C1024.11 128.855 1023.56 126.009 1022.47 123.697C1021.38 121.372 1019.9 119.614 1018 118.425C1016.13 117.222 1014 116.62 1011.62 116.62C1009.22 116.62 1007.09 117.222 1005.21 118.425C1003.33 119.614 1001.84 121.372 1000.75 123.697C999.666 126.009 999.125 128.855 999.125 132.235C999.125 135.614 999.666 138.467 1000.75 140.792C1001.84 143.104 1003.33 144.861 1005.21 146.065C1007.09 147.254 1009.22 147.849 1011.62 147.849C1014 147.849 1016.13 147.254 1018 146.065C1019.9 144.861 1021.38 143.104 1022.47 140.792C1023.56 138.467 1024.11 135.614 1024.11 132.235ZM1036.84 111.469L1048.4 145.294H1048.86L1060.42 111.469H1067.19L1052.25 153H1045.01L1030.06 111.469H1036.84ZM1069.61 153H1062.96L1077.9 111.469H1085.14L1100.09 153H1093.43L1081.69 119.013H1081.37L1069.61 153ZM1070.72 136.736H1092.3V142.009H1070.72V136.736ZM1096.27 116.863V111.469H1128.41V116.863H1115.46V153H1109.21V116.863H1096.27ZM1138.93 111.469V153H1132.66V111.469H1138.93ZM1148.83 111.469L1160.39 145.294H1160.85L1172.41 111.469H1179.19L1164.24 153H1157L1142.05 111.469H1148.83ZM1182.33 153V111.469H1208.37V116.863H1188.59V129.517H1207.01V134.891H1188.59V147.606H1208.61V153H1182.33ZM1260.63 124.975H1254.3C1254.06 123.623 1253.61 122.433 1252.95 121.406C1252.28 120.378 1251.47 119.506 1250.51 118.79C1249.55 118.073 1248.48 117.532 1247.29 117.167C1246.11 116.802 1244.86 116.62 1243.54 116.62C1241.14 116.62 1239 117.222 1237.11 118.425C1235.23 119.628 1233.74 121.392 1232.65 123.717C1231.57 126.043 1231.02 128.882 1231.02 132.235C1231.02 135.614 1231.57 138.467 1232.65 140.792C1233.74 143.117 1235.24 144.875 1237.13 146.065C1239.02 147.254 1241.15 147.849 1243.52 147.849C1244.83 147.849 1246.07 147.673 1247.25 147.322C1248.44 146.957 1249.51 146.423 1250.47 145.72C1251.43 145.017 1252.24 144.158 1252.91 143.145C1253.58 142.117 1254.05 140.941 1254.3 139.616L1260.63 139.636C1260.29 141.678 1259.64 143.557 1258.66 145.274C1257.7 146.977 1256.47 148.451 1254.95 149.695C1253.45 150.925 1251.74 151.878 1249.8 152.554C1247.87 153.23 1245.76 153.568 1243.48 153.568C1239.88 153.568 1236.68 152.716 1233.86 151.013C1231.05 149.296 1228.83 146.842 1227.21 143.651C1225.6 140.461 1224.8 136.655 1224.8 132.235C1224.8 127.8 1225.61 123.995 1227.23 120.818C1228.85 117.627 1231.07 115.18 1233.88 113.477C1236.7 111.76 1239.89 110.901 1243.48 110.901C1245.68 110.901 1247.73 111.219 1249.64 111.854C1251.56 112.476 1253.28 113.396 1254.81 114.612C1256.34 115.816 1257.6 117.289 1258.6 119.033C1259.6 120.764 1260.28 122.744 1260.63 124.975ZM1265.27 153V111.469H1271.54V129.517H1292.25V111.469H1298.53V153H1292.25V134.891H1271.54V153H1265.27ZM1308.31 153H1301.66L1316.6 111.469H1323.84L1338.79 153H1332.14L1320.4 119.013H1320.07L1308.31 153ZM1309.43 136.736H1331V142.009H1309.43V136.736ZM1341.93 153V111.469H1348.2V147.606H1367.02V153H1341.93ZM1371.31 153V111.469H1377.58V147.606H1396.39V153H1371.31ZM1400.69 153V111.469H1426.72V116.863H1406.95V129.517H1425.37V134.891H1406.95V147.606H1426.97V153H1400.69ZM1465.76 111.469V153H1460L1438.89 122.541H1438.51V153H1432.24V111.469H1438.04L1459.17 141.968H1459.56V111.469H1465.76ZM1500.15 124.589C1499.76 123.359 1499.23 122.257 1498.57 121.284C1497.92 120.297 1497.14 119.459 1496.24 118.769C1495.33 118.066 1494.3 117.532 1493.14 117.167C1491.99 116.802 1490.72 116.62 1489.34 116.62C1487 116.62 1484.9 117.222 1483.02 118.425C1481.14 119.628 1479.65 121.392 1478.56 123.717C1477.47 126.029 1476.93 128.862 1476.93 132.214C1476.93 135.581 1477.48 138.426 1478.58 140.752C1479.67 143.077 1481.17 144.841 1483.08 146.044C1484.98 147.248 1487.15 147.849 1489.59 147.849C1491.84 147.849 1493.81 147.39 1495.49 146.47C1497.18 145.551 1498.48 144.253 1499.4 142.577C1500.33 140.887 1500.8 138.9 1500.8 136.615L1502.42 136.919H1490.54V131.748H1506.86V136.473C1506.86 139.961 1506.12 142.989 1504.63 145.558C1503.16 148.113 1501.12 150.087 1498.51 151.479C1495.91 152.872 1492.94 153.568 1489.59 153.568C1485.83 153.568 1482.53 152.703 1479.69 150.972C1476.87 149.242 1474.66 146.788 1473.08 143.611C1471.5 140.42 1470.71 136.635 1470.71 132.255C1470.71 128.943 1471.17 125.968 1472.09 123.332C1473.01 120.696 1474.3 118.459 1475.96 116.62C1477.64 114.768 1479.6 113.355 1481.86 112.382C1484.13 111.395 1486.61 110.901 1489.3 110.901C1491.55 110.901 1493.64 111.233 1495.57 111.895C1497.52 112.557 1499.25 113.497 1500.76 114.714C1502.29 115.93 1503.55 117.377 1504.55 119.053C1505.55 120.716 1506.23 122.562 1506.58 124.589H1500.15ZM1511.96 153V111.469H1538V116.863H1518.23V129.517H1536.64V134.891H1518.23V147.606H1538.24V153H1511.96ZM1543.52 153V111.469H1558.32C1561.54 111.469 1564.21 112.023 1566.33 113.132C1568.47 114.241 1570.06 115.775 1571.12 117.735C1572.17 119.682 1572.7 121.933 1572.7 124.488C1572.7 127.03 1572.16 129.267 1571.1 131.2C1570.04 133.12 1568.45 134.614 1566.31 135.682C1564.19 136.75 1561.52 137.284 1558.3 137.284H1547.09V131.89H1557.73C1559.76 131.89 1561.41 131.599 1562.68 131.018C1563.96 130.436 1564.9 129.592 1565.5 128.483C1566.09 127.374 1566.39 126.043 1566.39 124.488C1566.39 122.92 1566.09 121.561 1565.48 120.412C1564.88 119.263 1563.94 118.384 1562.66 117.776C1561.39 117.154 1559.72 116.843 1557.65 116.843H1549.78V153H1543.52ZM1564.02 134.262L1574.28 153H1567.14L1557.08 134.262H1564.02ZM1588.64 132.235C1588.64 137.331 1587.97 142.016 1586.63 146.288C1585.29 150.56 1583.34 154.501 1580.77 158.11H1575.22C1576.22 156.772 1577.15 155.129 1578.01 153.183C1578.88 151.236 1579.64 149.106 1580.29 146.795C1580.93 144.469 1581.44 142.063 1581.81 139.575C1582.17 137.088 1582.35 134.641 1582.35 132.235C1582.35 129.031 1582.04 125.779 1581.4 122.48C1580.77 119.182 1579.91 116.12 1578.83 113.294C1577.74 110.469 1576.54 108.164 1575.22 106.379H1580.77C1583.34 109.989 1585.29 113.93 1586.63 118.202C1587.97 122.474 1588.64 127.151 1588.64 132.235Z" fill="black"/>
</svg>
